# xmcd
#
# Track frame offsets: 
#        150
#        14037
#        25618
#        37629
#        46992
#        67292
#        79429
#        100140
#        113969
#        133107
#        146853
#        159629
#        174544
#        194792
#
# Disc length: 2808 seconds
#
# Revision: 0
# Processed by: cddbd v1.5.2PL0 Copyright (c) Steve Scherf et al.
# Submitted via: ExactAudioCopy v0.99pb3
#
DISCID=cd0af60e
DTITLE=Franklin and Baytop - Searching For Frank
DYEAR=2007
DGENRE=Blues
TTITLE0=Champagne Charlie
TTITLE1=Changed The Locks
TTITLE2=Crazy About You
TTITLE3=Nobody's Business
TTITLE4=Some Cold Rainy Day
TTITLE5=You Shall Be Free
TTITLE6=I Got Mine
TTITLE7=Sweet To Mama
TTITLE8=One Way Gal
TTITLE9=Song For Frank
TTITLE10=Beans
TTITLE11=Jail House Blues
TTITLE12=Stop And Listen Blues
TTITLE13=Holy Spirit
EXTD=
EXTT0=
EXTT1=
EXTT2=
EXTT3=
EXTT4=
EXTT5=
EXTT6=
EXTT7=
EXTT8=
EXTT9=
EXTT10=
EXTT11=
EXTT12=
EXTT13=
PLAYORDER=
